HIERARCHY
ROOT Hips
{
 OFFSET 0.000000 0.000000 0.000000
 CHANNELS 6 Xposition Yposition Zposition Yrotation Xrotation Zrotation
 JOINT Chest
 {
  OFFSET 0.000000 9.585900 0.002600
  CHANNELS 3 Yrotation Xrotation Zrotation
  JOINT Chest2
  {
   OFFSET 0.000000 9.601200 -0.005300
   CHANNELS 3 Yrotation Xrotation Zrotation
   JOINT Chest3
   {
    OFFSET 0.000000 9.561800 0.000000
    CHANNELS 3 Yrotation Xrotation Zrotation
    JOINT Chest4
    {
     OFFSET 0.000000 9.552100 0.000000
     CHANNELS 3 Yrotation Xrotation Zrotation
     JOINT Neck
     {
      OFFSET 0.000000 14.453000 0.000000
      CHANNELS 3 Yrotation Xrotation Zrotation
      JOINT Head
      {
       OFFSET 0.000000 8.936500 -0.011300
       CHANNELS 3 Yrotation Xrotation Zrotation
       End Site
       {
        OFFSET 0.000000 17.073600 -0.006000
       }
      }
     }
     JOINT RightCollar
     {
      OFFSET -2.921100 9.558500 0.000000
      CHANNELS 3 Yrotation Xrotation Zrotation
      JOINT RightShoulder
      {
       OFFSET -13.519700 0.000000 0.000000
       CHANNELS 3 Yrotation Xrotation Zrotation
       JOINT RightElbow
       {
        OFFSET 0.000000 -29.696600 0.000000
        CHANNELS 3 Yrotation Xrotation Zrotation
        JOINT RightWrist
        {
         OFFSET 0.000000 -24.004700 0.000000
         CHANNELS 3 Yrotation Xrotation Zrotation
         End Site
         {
          OFFSET 0.000000 -17.728500 0.000000
         }
        }
       }
      }
     }
     JOINT LeftCollar
     {
      OFFSET 2.921100 9.558500 0.000000
      CHANNELS 3 Yrotation Xrotation Zrotation
      JOINT LeftShoulder
      {
       OFFSET 13.519700 0.000000 0.000000
       CHANNELS 3 Yrotation Xrotation Zrotation
       JOINT LeftElbow
       {
        OFFSET 0.000000 -29.696600 0.000000
        CHANNELS 3 Yrotation Xrotation Zrotation
        JOINT LeftWrist
        {
         OFFSET 0.000000 -24.004700 0.000000
         CHANNELS 3 Yrotation Xrotation Zrotation
         End Site
         {
          OFFSET 0.000000 -17.728500 0.000000
         }
        }
       }
      }
     }
    }
   }
  }
 }
 JOINT RightHip
 {
  OFFSET -7.771700 -0.012900 -0.001300
  CHANNELS 3 Yrotation Xrotation Zrotation
  JOINT RightKnee
  {
   OFFSET 0.000000 -40.869800 0.001200
   CHANNELS 3 Yrotation Xrotation Zrotation
   JOINT RightAnkle
   {
    OFFSET 0.000000 -39.717900 0.002100
    CHANNELS 3 Yrotation Xrotation Zrotation
    JOINT RightToe
    {
     OFFSET 0.000000 -4.965400 11.033500
     CHANNELS 3 Yrotation Xrotation Zrotation
     End Site
     {
      OFFSET 0.000000 -1.423100 5.872300
     }
    }
   }
  }
 }
 JOINT LeftHip
 {
  OFFSET 7.771700 -0.012900 -0.001300
  CHANNELS 3 Yrotation Xrotation Zrotation
  JOINT LeftKnee
  {
   OFFSET 0.000000 -40.869800 0.001200
   CHANNELS 3 Yrotation Xrotation Zrotation
   JOINT LeftAnkle
   {
    OFFSET 0.000000 -39.717900 0.002100
    CHANNELS 3 Yrotation Xrotation Zrotation
    JOINT LeftToe
    {
     OFFSET 0.000000 -4.965400 11.033500
     CHANNELS 3 Yrotation Xrotation Zrotation
     End Site
     {
      OFFSET 0.000000 -1.423100 5.872300
     }
    }
   }
  }
 }
}
MOTION
Frames: 9
Frame Time: 0.008333
0.000000 85.388000 0.000000 0.000000 -5.767877 0.000000 0.000000 11.653817 0.000000 0.000000 -5.885947 0.000000 0.000000 -0.000000 0.000000 0.000000 -0.000000 0.000000 0.000000 12.528835 0.000000 0.000000 0.711642 0.000000 0.000000 -0.000000 0.000000 0.000000 0.000000 -90.000000 0.000000 -2.309062 0.000000 0.000000 2.309062 0.000000 0.000000 -0.000000 0.000000 0.000000 -0.000000 90.000000 0.000000 -2.309062 0.000000 0.000000 2.309062 0.000000 0.000000 8.520406 0.000000 0.000000 1.905762 0.000000 -0.000000 -4.658285 0.000000 0.000000 -0.000000 0.000000 0.000000 8.520406 0.000000 0.000000 1.905762 0.000000 -0.000000 -4.658285 0.000000 0.000000 -0.000000 0.000000
-124.719321 57.616636 103.807635 178.104427 -32.497283 -1.422818 1.755650 22.359169 2.909442 0.185717 3.156752 0.364510 0.284559 5.115314 0.640460 1.404421 18.879815 2.516932 -4.543960 13.819610 -3.131260 -7.336013 -10.164570 -4.141626 3.344454 -4.572426 -0.097588 14.567772 -17.608591 -21.797103 136.296849 -83.396877 -89.797960 14.914198 -17.166854 -44.792116 -9.107405 -5.418341 -4.232235 -7.048115 -16.562976 4.843795 30.906317 -46.200182 -68.796665 5.820996 -11.410470 22.919427 5.665163 -42.814452 -5.927956 -7.132568 66.518083 -7.936563 8.073381 23.238576 6.648616 -0.119622 -14.908625 1.493674 -5.300462 -40.336664 -1.166036 25.604030 63.558602 24.949223 -15.730917 6.360776 -2.987614 -0.091135 0.086225 -0.048848
-124.716359 57.620720 103.802192 178.099067 -32.492928 -1.415038 1.744049 22.356192 2.916932 0.185607 3.156302 0.364137 0.279127 5.113988 0.648309 1.397386 18.877876 2.523404 -4.541476 13.862943 -3.150073 -7.329270 -9.968069 -4.108254 3.344700 -4.567738 -0.112612 14.566663 -17.624865 -21.795510 136.451432 -83.348059 -89.952886 14.890198 -17.149209 -44.773765 -9.105701 -5.412017 -4.244029 -7.040236 -16.577423 4.835375 30.936635 -46.298511 -68.785483 5.842467 -11.359198 22.840105 5.658501 -42.807254 -5.933382 -7.104363 66.528783 -7.897642 8.043014 23.173971 6.622056 -0.122946 -14.860602 1.493194 -5.295436 -40.339697 -1.173627 25.599424 63.560286 24.953584 -15.732736 6.363917 -2.994986 -0.085943 0.079023 -0.047417
-124.712602 57.627083 103.793813 178.109313 -32.503385 -1.416018 1.719605 22.369290 2.925186 0.184611 3.153762 0.366129 0.284319 5.114746 0.637912 1.391092 18.876975 2.540477 -4.532783 13.961576 -3.126869 -7.319312 -9.842948 -4.100265 3.338035 -4.563764 -0.112526 14.558639 -17.638416 -21.799358 136.512947 -83.316054 -89.991582 14.898380 -17.144688 -44.778195 -9.128735 -5.401573 -4.218756 -7.002769 -16.596801 4.799078 30.968891 -46.356254 -68.787756 5.811453 -11.329201 22.757072 5.633027 -42.783506 -5.940684 -7.101141 66.551654 -7.866156 8.008265 23.084516 6.566465 -0.104749 -14.800307 1.494907 -5.309723 -40.326492 -1.181477 25.613852 63.559803 24.973488 -15.740444 6.362364 -2.999632 -0.081014 0.073559 -0.050637
-124.709513 57.632577 103.787470 178.113945 -32.496461 -1.407549 1.695868 22.365989 2.925627 0.184914 3.153116 0.366116 0.289456 5.113609 0.629012 1.383999 18.878524 2.560610 -4.519428 14.055660 -3.104820 -7.303565 -9.725633 -4.093133 3.329971 -4.560248 -0.111784 14.550586 -17.651835 -21.801768 136.847208 -83.227985 -90.328855 14.967328 -17.131593 -44.814398 -9.134283 -5.399215 -4.222478 -6.982174 -16.606222 4.782322 30.995060 -46.421540 -68.783304 5.777128 -11.301585 22.658344 5.621290 -42.775918 -5.954525 -7.080077 66.556941 -7.834215 7.995356 23.035427 6.542701 -0.104326 -14.766896 1.493121 -5.310929 -40.329584 -1.199899 25.619270 63.550137 24.983095 -15.738107 6.373839 -3.003570 -0.084261 0.064264 -0.050915
-124.705616 57.639205 103.780177 178.111579 -32.497168 -1.398168 1.686627 22.368659 2.923096 0.178374 3.153760 0.376658 0.287772 5.113616 0.631176 1.383984 18.879126 2.551857 -4.504518 14.129103 -3.075200 -7.276279 -9.595924 -4.081234 3.316881 -4.560182 -0.091743 14.544734 -17.659623 -21.801309 137.175946 -83.130872 -90.665435 14.995381 -17.111949 -44.827569 -9.144310 -5.391975 -4.209780 -6.958829 -16.620739 4.757356 31.012237 -46.487351 -68.770624 5.741587 -11.276017 22.559424 5.577578 -42.750891 -5.935194 -7.030708 66.541087 -7.806891 7.989973 22.983895 6.534077 -0.119841 -14.724507 1.490039 -5.318051 -40.320476 -1.221450 25.648077 63.535161 25.017032 -15.720311 6.373998 -3.006567 -0.097329 0.061781 -0.057503
-124.700893 57.644397 103.775938 178.098953 -32.480349 -1.388048 1.686596 22.353845 2.924917 0.154573 3.161189 0.406475 0.300409 5.110143 0.613280 1.385745 18.877690 2.542602 -4.486897 14.196768 -3.045285 -7.238526 -9.474442 -4.072541 3.306295 -4.554702 -0.070858 14.534218 -17.671003 -21.800875 137.438287 -83.045879 -90.925719 15.014093 -17.091122 -44.840573 -9.152665 -5.384252 -4.196041 -6.940445 -16.623337 4.736265 31.044652 -46.558166 -68.777369 5.751917 -11.248748 22.504428 5.563107 -42.747633 -5.922832 -7.012162 66.535052 -7.795996 7.970441 22.891482 6.521183 -0.115685 -14.645302 1.483783 -5.314642 -40.333566 -1.228617 25.649039 63.530323 25.030077 -15.718009 6.376790 -3.019698 -0.093363 0.056248 -0.055833
-124.694200 57.649661 103.772345 178.109064 -32.465294 -1.402183 1.666087 22.344342 2.946075 0.151309 3.161165 0.407964 0.299665 5.110247 0.614917 1.377411 18.877472 2.549108 -4.461731 14.257549 -3.032872 -7.194673 -9.361435 -4.067540 3.301519 -4.550640 -0.070124 14.505484 -17.680221 -21.745660 137.479071 -82.929680 -90.947813 15.024328 -17.074666 -44.850774 -9.141546 -5.385747 -4.215735 -6.938885 -16.612965 4.728846 31.078756 -46.628034 -68.782990 5.760196 -11.228649 22.456638 5.523190 -42.751454 -5.902334 -6.992065 66.536175 -7.769199 7.956024 22.848431 6.492480 -0.113591 -14.613188 1.485314 -5.335124 -40.345150 -1.220106 25.606827 63.526399 25.015936 -15.720024 6.385840 -3.053994 -0.072480 0.049126 -0.045781
-124.690118 57.654867 103.769070 178.111567 -32.455222 -1.397648 1.642812 22.340564 2.949381 0.155531 3.159464 0.406276 0.292131 5.111530 0.621345 1.355171 18.880518 2.595375 -4.429962 14.308266 -3.066819 -7.148496 -9.256594 -4.064504 3.304177 -4.541835 -0.074990 14.535519 -17.674410 -21.774839 137.633691 -82.848822 -91.123518 15.030740 -17.066228 -44.855468 -9.111132 -5.395901 -4.280972 -6.946985 -16.595251 4.718743 31.116330 -46.690610 -68.786824 5.718903 -11.223515 22.403003 5.510005 -42.753010 -5.908132 -6.976132 66.540343 -7.740742 7.942293 22.815877 6.459886 -0.111316 -14.589539 1.490623 -5.348601 -40.352624 -1.226969 25.594931 63.521354 25.009008 -15.714080 6.395117 -3.060087 -0.076085 0.041925 -0.048823
